<svg width="30" height="30" viewBox="0 0 30 30" fill="none" xmlns="http://www.w3.org/2000/svg">
<path d="M6.25 10C6.25 10 8.125 13.75 8.125 21.875C8.125 25.625 9.58262 26.25 13.75 26.25H16.25C20.7591 26.25 21.875 25.625 21.875 21.875C21.875 13.75 23.75 10 23.75 10" stroke="white" stroke-width="1.5" stroke-linecap="round" stroke-linejoin="round"/>
<path d="M6.25 6.25H23.75C24.0815 6.25 24.3995 6.3817 24.6339 6.61612C24.8683 6.85054 25 7.16848 25 7.5V10H5V7.5C5 7.16848 5.1317 6.85054 5.36612 6.61612C5.60054 6.3817 5.91848 6.25 6.25 6.25V6.25Z" stroke="white" stroke-width="1.5" stroke-linecap="round" stroke-linejoin="round"/>
<path d="M12.5 14.375V21.875" stroke="white" stroke-width="1.5" stroke-linecap="round" stroke-linejoin="round"/>
<path d="M17.5 14.375V21.875" stroke="white" stroke-width="1.5" stroke-linecap="round" stroke-linejoin="round"/>
<path d="M13.6543 3.75H16.3455C16.6771 3.75 16.995 3.8817 17.2294 4.11612C17.4639 4.35054 17.5955 4.66848 17.5955 5V6.25H12.4043V5C12.4043 4.66848 12.536 4.35054 12.7704 4.11612C13.0048 3.8817 13.3228 3.75 13.6543 3.75V3.75Z" stroke="white" stroke-width="1.5" stroke-linecap="round" stroke-linejoin="round"/>
</svg>
