<svg width="26" height="26" viewBox="0 0 26 26" fill="none" xmlns="http://www.w3.org/2000/svg">
<path d="M13 22.75C20.5833 22.75 22.75 20.5833 22.75 13C22.75 5.41667 20.5833 3.25 13 3.25C5.41667 3.25 3.25 5.41667 3.25 13C3.25 20.5833 5.41667 22.75 13 22.75Z" stroke="#888888" stroke-width="1.5" stroke-miterlimit="10"/>
<path d="M16.7917 18.4167V14.625" stroke="#888888" stroke-width="1.5" stroke-linecap="round" stroke-linejoin="round"/>
<path d="M16.7917 11.5158V7.58334" stroke="#888888" stroke-width="1.5" stroke-linecap="round" stroke-linejoin="round"/>
<path d="M12.4583 16.7917V9.20834" stroke="#888888" stroke-width="1.5" stroke-linecap="round" stroke-linejoin="round"/>
<path d="M8.125 15.1667V10.8333" stroke="#888888" stroke-width="1.5" stroke-linecap="round" stroke-linejoin="round"/>
<path d="M16.7916 11.9167C17.3899 11.9167 17.8749 11.4316 17.8749 10.8333C17.8749 10.235 17.3899 9.75 16.7916 9.75C16.1933 9.75 15.7083 10.235 15.7083 10.8333C15.7083 11.4316 16.1933 11.9167 16.7916 11.9167Z" fill="#888888" stroke="#888888" stroke-linecap="round" stroke-linejoin="round"/>
</svg>
