<svg width="30" height="30" viewBox="0 0 30 30" fill="none" xmlns="http://www.w3.org/2000/svg">
<path d="M15 17.5C16.3807 17.5 17.5 16.3807 17.5 15C17.5 13.6193 16.3807 12.5 15 12.5C13.6193 12.5 12.5 13.6193 12.5 15C12.5 16.3807 13.6193 17.5 15 17.5Z" stroke="#FFFFFF" stroke-width="1.5" stroke-miterlimit="10"/>
<path d="M13.125 13.125L6.875 6.875" stroke="#FFFFFF" stroke-width="1.5" stroke-linecap="round" stroke-linejoin="round"/>
<path d="M4.75721 10.3406C3.66768 12.7382 3.45446 15.4421 4.15474 17.9808C4.85502 20.5195 6.42436 22.7317 8.58897 24.2316C10.7536 25.7315 13.3761 26.4238 15.999 26.1878C18.6219 25.9518 21.0786 24.8024 22.9407 22.9402C24.8028 21.078 25.952 18.6211 26.1878 15.9982C26.4237 13.3753 25.7312 10.7529 24.2311 8.58835C22.7311 6.42384 20.5188 4.85465 17.9801 4.15454C15.4414 3.45443 12.7374 3.66783 10.34 4.75752" stroke="#FFFFFF" stroke-width="1.5" stroke-linecap="round" stroke-linejoin="round"/>
</svg>
