<svg width="30" height="30" viewBox="0 0 30 30" fill="none" xmlns="http://www.w3.org/2000/svg">
<path d="M21.25 11.25V10.75C21.25 8.75 21.25 6.75 18.3334 6.75H14.4445C12.5 6.75 12.5 3.75 10 3.75H6.66663C3.75 3.75 3.75 6.25 3.75 7.5V14.75C3.75 16.5771 3.75 18.4044 5.974 18.7065" stroke="white" stroke-width="1.5" stroke-linecap="round" stroke-linejoin="round"/>
<path d="M8.75 22.25C8.75 24.25 8.75 26.25 11.6666 26.25H23.3334C26.25 26.25 26.25 24.25 26.25 22.25V18.25C26.25 16.25 26.25 14.25 23.3334 14.25H19.4445C17.5 14.25 17.5 11.25 15 11.25H11.6666C8.75 11.25 8.75 13.75 8.75 15V22.25Z" stroke="white" stroke-width="1.5" stroke-linecap="round" stroke-linejoin="round"/>
</svg>
