<svg width="209" height="34" viewBox="0 0 209 34" fill="none" xmlns="http://www.w3.org/2000/svg">
<path d="M0 0H30.2222V31.0897H0V0Z" fill="#ECFB72"/>
<path d="M8.88889 6.96207H39.1111L30.2222 31.0898H0L8.88889 6.96207Z" fill="#C4D065"/>
<path d="M17.7778 16.0669H48L30.2222 31.0898H0L17.7778 16.0669Z" fill="#1D1D1D"/>
<rect y="31.0895" width="48" height="0.91048" fill="black"/>
<path d="M82.016 10.552C81.056 6.072 77.216 3.384 72.416 3.384C65.888 3.384 61.632 8.152 61.632 15.352C61.632 22.424 65.44 27.416 72.128 27.416C75.232 27.416 77.952 26.456 79.456 24.088L79.616 27H82.176V15.16H72.96V17.976H79.104V18.584C79.104 23.384 75.36 24.664 72.256 24.664C67.968 24.664 64.96 21.208 64.96 15.352C64.96 9.336 68.16 6.136 72.256 6.136C75.968 6.136 78.08 7.96 78.848 10.552H82.016ZM97.4288 24.536V27H100.341V9.784H97.4288V19.256C97.4288 22.936 95.7968 24.888 93.0448 24.888C89.8768 24.888 89.4288 22.584 89.4288 19.928V9.784H86.5168V20.792C86.5168 24.728 88.0208 27.416 92.0208 27.416C94.8688 27.416 96.4368 26.168 97.4288 24.536ZM105.792 5.464V9.784H103.072V12.12H105.792V22.68C105.792 26.264 106.56 27 109.856 27H111.968V24.568H110.496C108.832 24.568 108.704 24.12 108.704 22.328V12.12H111.968V9.784H108.704V5.464H105.792ZM119.047 25.4C117.607 25.4 116.647 24.408 116.647 22.328C116.647 21.56 116.743 20.664 116.935 19.736C121.351 19.064 125.863 16.056 125.863 12.472C125.863 10.744 124.679 9.56 122.791 9.56C118.087 9.56 113.447 17.08 113.447 22.52C113.447 25.688 115.111 27.448 117.639 27.448C120.679 27.448 123.239 24.6 125.031 20.184H124.327C122.727 23.416 120.935 25.4 119.047 25.4ZM122.599 10.776C123.399 10.776 123.655 11.32 123.655 12.248C123.655 15.224 120.615 17.848 117.191 18.712C118.151 14.936 120.327 10.776 122.599 10.776ZM129.775 27C134.383 15 137.359 11.864 138.607 11.864C139.087 11.864 139.311 12.184 139.311 12.888C139.311 14.072 137.935 17.368 136.751 20.376L134.159 27H137.295C138.383 24.152 139.375 21.784 140.303 19.896C143.247 13.72 145.423 11.864 146.383 11.864C146.831 11.864 147.055 12.184 147.055 12.888C147.055 14.168 145.295 18.136 143.567 22.424C143.055 23.768 142.639 24.504 142.639 25.24C142.639 26.392 143.215 27.288 144.911 27.288C147.503 27.288 149.583 24.056 150.767 21.208H149.999C148.943 23.544 147.503 25.56 146.319 25.56C145.903 25.56 145.743 25.304 145.743 24.824C145.743 24.376 146.223 23.288 146.479 22.552C148.047 18.872 150.383 14.264 150.383 11.928C150.383 10.552 149.615 9.592 148.111 9.592C145.519 9.592 142.991 12.76 139.695 19.864H139.407C140.911 16.344 142.287 13.656 142.287 11.768C142.287 10.616 141.583 9.592 140.335 9.592C137.775 9.592 135.535 12.792 132.207 19.864H131.919L133.807 14.744C134.351 13.368 134.831 12.248 134.831 11.416C134.831 10.488 134.286 9.656 133.135 9.656C130.799 9.656 128.399 12.216 126.927 15.064H127.695C128.911 13.048 130.319 11.352 131.279 11.352C131.535 11.352 131.695 11.48 131.695 11.896C131.695 12.344 131.247 13.656 130.863 14.712L126.639 27H129.775ZM156.622 3.8H153.71V27H156.622V24.408C157.678 26.232 159.502 27.416 162.254 27.416C166.19 27.416 169.614 24.152 169.614 18.456C169.614 12.792 166.19 9.496 162.254 9.496C159.502 9.496 157.678 10.68 156.622 12.504V3.8ZM161.518 24.92C158.926 24.92 156.494 23 156.494 18.456C156.494 13.912 158.926 11.992 161.518 11.992C164.494 11.992 166.446 14.36 166.446 18.456C166.446 22.552 164.494 24.92 161.518 24.92ZM181.505 12.824V9.72C181.185 9.688 180.929 9.688 180.641 9.688C178.401 9.752 176.641 10.84 175.777 12.792V9.784H172.929V27H175.841V17.976C175.841 14.2 177.185 12.696 179.873 12.696C180.353 12.696 180.897 12.76 181.505 12.824ZM195.576 9.784V12.504C194.52 10.68 192.856 9.496 190.104 9.496C186.296 9.496 182.808 12.6 182.808 18.104C182.808 23.64 186.296 26.712 190.104 26.712C192.856 26.712 194.52 25.56 195.576 23.736V25.368C195.576 27.704 195.096 28.504 194.456 29.176C193.688 30.008 192.504 30.456 190.936 30.456C188.248 30.456 187.32 29.272 186.936 27.736H183.832C184.376 31.224 187 33.016 190.904 33.016C193.464 33.016 195.608 32.184 196.856 30.744C197.847 29.656 198.488 28.216 198.488 24.696V9.784H195.576ZM190.84 11.992C193.432 11.992 195.704 13.752 195.704 18.104C195.704 22.488 193.432 24.248 190.84 24.248C187.992 24.248 185.976 22.04 185.976 18.104C185.976 14.2 187.992 11.992 190.84 11.992ZM202.861 27H206.541V23.32H202.861V27Z" fill="#ECFB72"/>
</svg>
